<?xml version="1.0" encoding="UTF-8"?>
<svg xmlns="http://www.w3.org/2000/svg" xmlns:xlink="http://www.w3.org/1999/xlink" width="24pt" height="23pt" viewBox="0 0 24 23" version="1.1">
<g id="surface1">
<path style=" stroke:none;fill-rule:nonzero;fill:rgb(44.705882%,53.72549%,85.490196%);fill-opacity:1;" d="M 10.226562 9.957031 C 9.667969 9.957031 9.226562 10.4375 9.226562 11.019531 C 9.226562 11.605469 9.679688 12.085938 10.226562 12.085938 C 10.785156 12.085938 11.226562 11.605469 11.226562 11.019531 C 11.234375 10.4375 10.785156 9.957031 10.226562 9.957031 Z M 13.800781 9.957031 C 13.242188 9.957031 12.804688 10.4375 12.804688 11.019531 C 12.804688 11.605469 13.253906 12.085938 13.800781 12.085938 C 14.359375 12.085938 14.800781 11.605469 14.800781 11.019531 C 14.800781 10.4375 14.359375 9.957031 13.800781 9.957031 Z M 13.800781 9.957031 "/>
<path style=" stroke:none;fill-rule:nonzero;fill:rgb(44.705882%,53.72549%,85.490196%);fill-opacity:1;" d="M 18.5625 1.917969 L 5.4375 1.917969 C 4.328125 1.917969 3.429688 2.796875 3.429688 3.890625 L 3.429688 16.847656 C 3.429688 17.941406 4.328125 18.820312 5.4375 18.820312 L 16.546875 18.820312 L 16.027344 17.046875 L 17.28125 18.1875 L 18.464844 19.261719 L 20.570312 21.082031 L 20.570312 3.890625 C 20.570312 2.796875 19.671875 1.917969 18.5625 1.917969 Z M 14.78125 14.433594 C 14.78125 14.433594 14.429688 14.019531 14.136719 13.65625 C 15.417969 13.300781 15.910156 12.515625 15.910156 12.515625 C 15.507812 12.773438 15.125 12.957031 14.78125 13.082031 C 14.292969 13.28125 13.820312 13.417969 13.363281 13.492188 C 12.421875 13.664062 11.558594 13.617188 10.824219 13.484375 C 10.265625 13.378906 9.785156 13.226562 9.382812 13.070312 C 9.160156 12.984375 8.914062 12.878906 8.667969 12.746094 C 8.640625 12.726562 8.609375 12.71875 8.582031 12.699219 C 8.5625 12.6875 8.550781 12.679688 8.542969 12.667969 C 8.367188 12.574219 8.269531 12.507812 8.269531 12.507812 C 8.269531 12.507812 8.738281 13.273438 9.980469 13.636719 C 9.6875 14 9.324219 14.433594 9.324219 14.433594 C 7.160156 14.367188 6.339844 12.976562 6.339844 12.976562 C 6.339844 9.890625 7.75 7.390625 7.75 7.390625 C 9.160156 6.355469 10.5 6.382812 10.5 6.382812 L 10.597656 6.496094 C 8.835938 6.996094 8.023438 7.753906 8.023438 7.753906 C 8.023438 7.753906 8.238281 7.636719 8.601562 7.476562 C 9.648438 7.023438 10.480469 6.898438 10.824219 6.871094 C 10.882812 6.863281 10.933594 6.851562 10.992188 6.851562 C 11.589844 6.777344 12.265625 6.757812 12.96875 6.832031 C 13.902344 6.9375 14.898438 7.207031 15.917969 7.753906 C 15.917969 7.753906 15.144531 7.035156 13.480469 6.535156 L 13.617188 6.382812 C 13.617188 6.382812 14.957031 6.355469 16.367188 7.390625 C 16.367188 7.390625 17.78125 9.890625 17.78125 12.976562 C 17.78125 12.976562 16.945312 14.367188 14.78125 14.433594 Z M 14.78125 14.433594 "/>
</g>
</svg>
